# xmcd
#
# Track frame offsets: 
#        150
#        20173
#        42173
#        64620
#        90434
#        112049
#        136052
#        155700
#        174146
#        196786
#
# Disc length: 2918 seconds
#
# Revision: 0
# Processed by: cddbd v1.5.2PL0 Copyright (c) Steve Scherf et al.
# Submitted via: ExactAudioCopy v1.0b3
#
DISCID=790b640a
DTITLE=Nhat Truong, Son Tuyen - Mua Buon Tinh Le
DYEAR=1995
DGENRE=
TTITLE0=Nhat Truong - Tien biet
TTITLE1=Son Tuyen - Tu do em buon
TTITLE2=Nhat Truong - Chieu thuong do thi
TTITLE3=Son Tuyen - Thuong hoai ngan nam
TTITLE4=Nhat Truong - Toi van nho
TTITLE5=Nhat Truong - Thu cho vo hien
TTITLE6=Son Tuyen - Nho
TTITLE7=Nhat Truong - Tra lai em thanh pho nay
TTITLE8=Son Tuyen - Xin thoi gian qua mau
TTITLE9=Nhat Truong - Mua buon tinh le
EXTD=
EXTT0=
EXTT1=
EXTT2=
EXTT3=
EXTT4=
EXTT5=
EXTT6=
EXTT7=
EXTT8=
EXTT9=
PLAYORDER=
